<svg xmlns="http://www.w3.org/2000/svg" version="1.1" xmlns:xlink="http://www.w3.org/1999/xlink" xmlns:svgjs="http://svgjs.dev/svgjs" width="100%" height="100%" viewBox="0 0 1000 600"><rect width="1000" height="600" x="0" y="0" fill="#5a141d"/><g><circle r="166.66666666666666" cx="483.30362955729163" cy="505.5260347393204" fill="#ffffff" transform="matrix(0.3947735655180812,0,0,0.3947735655180812,0,100.43165368627)"/><path d="M555.9524550153828 550.7343711690598L566.8750745590316 565.0796099157591Q553.3929310896233 580.5260391886573 535.5953112337597 580.5260391886573L535.5953112337597 580.5260391886573Q516.9643580067188 580.5260391886573 504.19650028403413 567.0141338131356Q491.4584044674629 553.5319903437273 483.5119755351627 525.4367509725982L483.5119755351627 525.4367509725982L480.089356332112 514.7224647717441L449.4643549413369 514.7224647717441L449.4643549413369 559.7224668153319L476.45840378626696 559.7224668153319L476.45840378626696 577.5200866711955L399.73220982570507 577.5200866711955L399.73220982570507 559.9605620642399L427.38102060513177 559.9605620642399L427.38102060513177 448.2938903264476L399.73220982570507 448.2938903264476L399.73220982570507 430.52603237669763L485.0298327469504 430.52603237669763Q510.089357694504 430.52603237669763 524.6726916901112 441.86531860593504Q539.226263779605 453.23436674128595 539.226263779605 472.728415245618L539.226263779605 472.728415245618Q539.226263779605 488.7998445468994 528.839358545999 499.841511715002Q518.4524533123931 510.8831788831046 499.5834048364441 513.6510361516587L499.5834048364441 513.6510361516587L503.45245263119705 524.1569890097185Q510.089357694504 543.0260374856673 518.2441199695986 551.5974664463508Q526.3691203385797 560.1688954070343 536.6667398538452 560.1688954070343L536.6667398538452 560.1688954070343Q543.0953115743578 560.1688954070343 547.589359397494 557.5796095751612Q552.0834072206301 555.0200856494015 555.9524550153828 550.7343711690598L555.9524550153828 550.7343711690598ZM449.4643549413369 448.2938903264476L449.4643549413369 498.0260354420795L485.65483277533355 498.0260354420795Q499.3750714936497 498.0260354420795 508.39292904603536 491.2700827543186Q517.3810246923076 484.5141300665577 517.3810246923076 472.728415245618L517.3810246923076 472.728415245618Q517.3810246923076 461.3891290163806 508.48221476437584 454.8415096714141Q499.5834048364441 448.2938903264476 485.65483277533355 448.2938903264476L485.65483277533355 448.2938903264476L449.4643549413369 448.2938903264476Z " fill="#5a141d" transform="matrix(0.3947735655180812,0,0,0.3947735655180812,0,100.43165368627)"/><path d="M733.3036437974 439.97945748954027L874.2406285269086 439.97945748954027L874.2406285269086 485.1551431369095L855.7799471080455 485.1551431369095L855.7799471080455 456.62753423736706L814.2015845770408 456.62753423736706L814.2015845770408 561.0335632890648L840.3030918399652 561.0335632890648L840.3030918399652 577.7095262625999L767.2132942586352 577.7095262625999L767.2132942586352 561.0335632890648L793.5378913272256 561.0335632890648L793.5378913272256 456.62753423736706L751.7643252162633 456.62753423736706L751.7643252162633 485.1551431369095L733.3036437974 485.1551431369095L733.3036437974 439.97945748954027ZM987.876998288038 561.0335632890648L991.8926147900263 575.3113108516902Q985.2835792971704 579.3269273536785 976.4436457476544 579.3269273536785L976.4436457476544 579.3269273536785Q968.9980234835509 579.3269273536785 963.8948441789407 575.0045623688993Q958.7637786486222 570.6821973841202 956.7559703976281 562.6509643801435L956.7559703976281 562.6509643801435Q936.6778878876861 580.5260350591334 917.0180987633681 580.5260350591334L917.0180987633681 580.5260350591334Q903.1586445863666 580.5260350591334 893.5100104913112 572.6900056351144Q883.889262621964 564.8539762110954 883.889262621964 550.799318454136L883.889262621964 550.799318454136Q883.889262621964 541.178570584789 889.299190409365 534.0396968034763Q894.709118196766 526.9008230221636 903.8558002290729 523.191955002966Q913.0024822613798 519.4830869837684 923.6271342562239 519.4830869837684L923.6271342562239 519.4830869837684Q932.6622713856979 519.4830869837684 940.303097229759 521.1841467519719Q947.916036848112 522.8852065201752 955.9472698520887 526.1200087023326L955.9472698520887 526.1200087023326L955.9472698520887 517.2800751528164Q955.9472698520887 507.04583031788775 949.1430307792751 502.22151327036005Q942.3109054807531 497.39719622283235 931.2679601002852 497.39719622283235L931.2679601002852 497.39719622283235Q915.5959012522472 497.39719622283235 893.5100104913112 506.04192619239063L893.5100104913112 506.04192619239063L889.4943939893228 490.76027450426824Q913.1976858413375 480.7212332492973 933.6661755111949 480.7212332492973L933.6661755111949 480.7212332492973Q953.1586472812634 480.7212332492973 963.8948441789407 490.2583224415197Q974.631041076618 499.7954116337421 974.631041076618 518.0887756983558L974.631041076618 518.0887756983558L974.631041076618 552.8071267051303Q974.631041076618 562.6509643801435 981.6583699550976 562.6509643801435L981.6583699550976 562.6509643801435Q984.6700823315889 562.6509643801435 987.876998288038 561.0335632890648L987.876998288038 561.0335632890648ZM903.3538481663244 549.795414328639Q903.3538481663244 556.6275396271608 908.7637759537253 560.3364076463585Q914.2015899668346 564.045275665556 922.0376193908536 564.045275665556L922.0376193908536 564.045275665556Q928.8418584636672 564.045275665556 937.6817920131833 560.4479525491914Q946.5217255626993 556.8227432071186 955.9472698520887 549.795414328639L955.9472698520887 549.795414328639L955.9472698520887 539.1707623337948Q942.3109054807531 534.346445286267 927.057140018339 533.9281519006432L927.057140018339 533.9281519006432Q917.2133023433258 533.9281519006432 910.269632141971 538.0553133054647Q903.3538481663244 542.182474710286 903.3538481663244 549.795414328639L903.3538481663244 549.795414328639ZM1051.1229581943549 521.8813023946782Q1069.6115258389264 526.9008230221636 1079.5390221910643 534.4301039633918Q1089.4665185432023 541.95938490462 1089.4665185432023 554.6197313761667L1089.4665185432023 554.6197313761667Q1089.4665185432023 566.2761737222163 1079.6505670938973 573.3871612778207Q1069.806729418884 580.5260350591334 1055.333778276301 580.5260350591334L1055.333778276301 580.5260350591334Q1045.29473702133 580.5260350591334 1035.5624442491498 577.0123706198935Q1025.8301514769696 573.4987061806537 1018.1893256329084 567.2800778477133L1018.1893256329084 567.2800778477133L1018.1893256329084 577.9047298425576L1002.9355601704943 577.9047298425576L1002.9355601704943 547.2019953377715L1011.5802901400526 546.3932947922322Q1019.1932297584057 555.0101385360822 1030.7381272016223 561.1451081918977Q1042.2830246448389 567.2800778477133 1053.3259700253066 567.2800778477133L1053.3259700253066 567.2800778477133Q1060.7715922894104 567.2800778477133 1064.9824123713565 564.4635690511798Q1069.1932324533022 561.6470602546464 1069.1932324533022 556.4323360472031L1069.1932324533022 556.4323360472031Q1069.1932324533022 550.4089112942205 1062.5841969604467 546.4769534693569Q1055.9472752418824 542.5728818702016 1040.8887133594262 538.5572653682132L1040.8887133594262 538.5572653682132Q1022.8184391004784 533.7329483206855 1013.0861463282982 526.398870959415Q1003.3538535561181 519.0926798238529 1003.3538535561181 507.2410338978455L1003.3538535561181 507.2410338978455Q1003.3538535561181 499.7954116337421 1007.4531287352312 493.68832820363474Q1011.5802901400526 487.5533585478192 1019.1095710812808 484.03969410857934Q1026.6388520225091 480.52602966933955 1036.4826896975223 480.52602966933955L1036.4826896975223 480.52602966933955Q1046.1034375668692 480.52602966933955 1054.8318262135526 483.7329456257886Q1063.588101085944 486.9677478079459 1070.0019329988418 492.7680827552624L1070.0019329988418 492.7680827552624L1070.0019329988418 483.1473348859153L1085.0604948812984 483.1473348859153L1085.0604948812984 513.6548658107436L1076.220561331782 514.6587699362408Q1070.6154299644236 505.23322564685134 1060.855250966535 499.51654937665955Q1051.1229581943549 493.7719868807595 1041.5022103250076 493.7719868807595L1041.5022103250076 493.7719868807595Q1033.6661809009888 493.7719868807595 1028.6466602735031 496.8952441600838Q1023.6271396460178 500.0185014394081 1023.6271396460178 505.0380220668936L1023.6271396460178 505.0380220668936Q1023.6271396460178 510.44794985429456 1030.2361751388735 514.1568178734922Q1036.8730968574378 517.8656858926897 1051.1229581943549 521.8813023946782L1051.1229581943549 521.8813023946782ZM1180.8217939634378 556.2371324672454L1187.6539192619593 571.0726045440358Q1180.2361832235642 575.5065144316479 1173.0973094422516 577.9047298425576Q1165.9863218866471 580.3308314791757 1156.7280949515075 580.3308314791757L1156.7280949515075 580.3308314791757Q1141.2791259091355 580.3308314791757 1132.1324438768283 570.5706524812872Q1123.01364807023 560.838359709107 1123.01364807023 542.7680854501593L1123.01364807023 542.7680854501593L1123.01364807023 499.014597313911L1101.9316614347908 499.014597313911L1101.9316614347908 483.1473348859153L1123.01364807023 483.1473348859153L1123.01364807023 456.85062404303306L1142.6734371945481 456.85062404303306L1142.6734371945481 483.1473348859153L1174.017554890624 483.1473348859153L1174.017554890624 499.014597313911L1142.6734371945481 499.014597313911L1142.6734371945481 542.963289030117Q1142.6734371945481 553.225420090754 1147.302550662118 558.0218509125734Q1151.9316641296878 562.8461679601012 1159.7398073279987 562.8461679601012L1159.7398073279987 562.8461679601012Q1165.3728249210658 562.8461679601012 1170.392345548551 561.1451081918977Q1175.4118661760367 559.4440484236943 1180.8217939634378 556.2371324672454L1180.8217939634378 556.2371324672454ZM1281.435296318813 550.799318454136L1289.8569364827054 563.6548685056405Q1270.5875545183026 580.5260350591334 1245.880358540791 580.5260350591334L1245.880358540791 580.5260350591334Q1232.4391977494129 580.5260350591334 1220.392348243448 574.8930174660663Q1208.345498737483 569.2878860987075 1200.8998764733797 558.4401442981973Q1193.482140434984 547.5924024976871 1193.482140434984 532.7290441951884L1193.482140434984 532.7290441951884Q1193.482140434984 516.8617817671927 1201.1229662790456 505.0380220668936Q1208.7359058973984 493.18637614088624 1220.9779589833215 486.85620290511287Q1233.2478982949524 480.52602966933955 1246.6890590863304 480.52602966933955L1246.6890590863304 480.52602966933955Q1258.5407050123376 480.52602966933955 1267.882590624602 484.34644259137013Q1277.1965900111586 488.1668555134007 1282.522859121435 494.99898081192265Q1287.849128231711 501.8032198847363 1287.849128231711 510.6431534342523L1287.849128231711 510.6431534342523Q1287.849128231711 523.8891106456723 1276.499434368452 531.2231880069428Q1265.1497405051937 538.5572653682132 1249.3103643029058 538.5572653682132L1249.3103643029058 538.5572653682132Q1239.048233242269 538.5572653682132 1230.2361859184612 536.437912214386Q1221.3962523689452 534.346445286267 1212.3611152394715 530.3308287842787L1212.3611152394715 530.3308287842787L1212.3611152394715 532.1434334553151Q1212.3611152394715 541.5689777447044 1216.8786838042083 548.7915102031419Q1221.3962523689452 556.0140426615793 1229.009191987298 559.83445558361Q1236.6500178313595 563.6548685056405 1245.6851549608332 563.6548685056405L1245.6851549608332 563.6548685056405Q1266.1536446306905 563.6548685056405 1281.435296318813 550.799318454136L1281.435296318813 550.799318454136ZM1248.083370371743 496.1980885173775Q1237.2635147969409 496.1980885173775 1227.9216291846765 502.4167168503178Q1218.5797435724116 508.63534518325815 1214.5641270704232 519.2878834038106L1214.5641270704232 519.2878834038106Q1229.8178925328375 524.6978111912116 1245.0716579952514 524.6978111912116L1245.0716579952514 524.6978111912116Q1255.1106992502228 524.6978111912116 1261.6360760659536 520.988943172014Q1268.161452881685 517.2800751528164 1268.161452881685 510.6431534342523L1268.161452881685 510.6431534342523Q1268.161452881685 504.2293215213542 1262.556321514326 500.2137050193659Q1256.923303921259 496.1980885173775 1248.083370371743 496.1980885173775L1248.083370371743 496.1980885173775ZM1417.157556840878 580.5260350591334Q1403.2981026638768 580.5260350591334 1391.2512531579114 574.307406726193Q1379.2044036519464 568.0608921675444 1372.0655298706338 556.6275396271608Q1364.9545423150294 545.1941870867773 1364.9545423150294 530.5260323642365L1364.9545423150294 530.5260323642365Q1364.9545423150294 515.6626740617378 1372.0655298706338 504.312980198479Q1379.2044036519464 492.9911725609285 1391.2512531579114 486.7446580022799Q1403.2981026638768 480.52602966933955 1417.157556840878 480.52602966933955L1417.157556840878 480.52602966933955Q1430.7939212122137 480.52602966933955 1442.757112041054 486.7446580022799Q1454.6924166441863 492.9911725609285 1461.9149491026237 504.42452510131204Q1469.1653677867694 515.8578776416955 1469.1653677867694 530.5260323642365L1469.1653677867694 530.5260323642365Q1469.1653677867694 545.1941870867773 1462.1380389082897 556.6275396271608Q1455.11071002981 568.0608921675444 1443.1475192009698 574.307406726193Q1431.2122145978374 580.5260350591334 1417.157556840878 580.5260350591334L1417.157556840878 580.5260350591334ZM1417.157556840878 564.6587726311376Q1426.1926939703521 564.6587726311376 1433.4152264287895 560.4479525491914Q1440.637758887227 556.2371324672454 1444.7649202920484 548.4847617203511Q1448.864195471161 540.7602771991651 1448.864195471161 530.5260323642365L1448.864195471161 530.5260323642365Q1448.864195471161 520.2917875293077 1444.7649202920484 512.5673030081218Q1440.637758887227 504.81493226122757 1433.4152264287895 500.6041121792814Q1426.1926939703521 496.39329209733523 1417.157556840878 496.39329209733523L1417.157556840878 496.39329209733523Q1403.2981026638768 496.39329209733523 1394.3745104372356 505.7351777095999Q1385.4230319848866 515.0770633218644 1385.4230319848866 530.5260323642365L1385.4230319848866 530.5260323642365Q1385.4230319848866 545.9750014066084 1394.3745104372356 555.316887018873Q1403.2981026638768 564.6587726311376 1417.157556840878 564.6587726311376L1417.157556840878 564.6587726311376ZM1544.458177199051 447.2019899479777Q1535.1999502639114 447.2019899479777 1529.5948188965526 453.0302111210025Q1523.9618013034856 458.8584322940273 1523.9618013034856 469.092677128956L1523.9618013034856 469.092677128956L1523.9618013034856 483.1473348859153L1554.0789250683983 483.1473348859153L1554.0789250683983 499.014597313911L1523.9618013034856 499.014597313911L1523.9618013034856 561.8422638346041L1551.6807096574885 561.8422638346041L1551.6807096574885 577.7095262625999L1483.2200255437288 577.7095262625999L1483.2200255437288 561.8422638346041L1504.497215759125 561.8422638346041L1504.497215759125 499.014597313911L1483.2200255437288 499.014597313911L1483.2200255437288 483.1473348859153L1504.497215759125 483.1473348859153L1504.497215759125 469.6782878688293Q1504.497215759125 451.0224028700083 1514.8430054968871 440.78815803507956Q1525.1609090089405 430.52602697444263 1542.450368948057 430.52602697444263L1542.450368948057 430.52602697444263Q1551.2624162718648 430.52602697444263 1558.5964936331352 432.8405837082276Q1565.9305709944056 435.15514044201257 1575.579205089461 439.5611641039165L1575.579205089461 439.5611641039165L1568.3287864053154 454.8428157920389Q1562.1101580723753 451.21760644996607 1556.393481802183 449.2097981989719Q1550.6768055319917 447.2019899479777 1544.458177199051 447.2019899479777L1544.458177199051 447.2019899479777ZM1775.5513296433405 552.6119231251726L1785.7855744782692 566.0530839165502Q1773.1252280067224 580.5260350591334 1756.4771512588954 580.5260350591334L1756.4771512588954 580.5260350591334Q1738.9924877398212 580.5260350591334 1727.0571831366892 567.8656885875866Q1715.1218785335573 555.2332283417483 1707.6762562694535 528.9086312731578L1707.6762562694535 528.9086312731578L1704.4693403130045 518.8695900181868L1675.7465278335044 518.8695900181868L1675.7465278335044 561.0335632890648L1701.0672207765979 561.0335632890648L1701.0672207765979 577.7095262625999L1629.1765309007228 577.7095262625999L1629.1765309007228 561.2566530947308L1655.0828345836894 561.2566530947308L1655.0828345836894 456.62753423736706L1629.1765309007228 456.62753423736706L1629.1765309007228 439.97945748954027L1709.0984537805748 439.97945748954027Q1732.5786558269233 439.97945748954027 1746.2429064239668 450.60410948438454Q1759.8792707953025 461.256647704937 1759.8792707953025 479.52212554384244L1759.8792707953025 479.52212554384244Q1759.8792707953025 494.5806874262988 1750.1469780231223 504.92647716406054Q1740.414685250942 515.2722669018223 1722.73481815191 517.8656858926897L1722.73481815191 517.8656858926897L1726.3600274939831 527.709523567703Q1732.5786558269233 545.389390666735 1740.2194816709844 553.4206236707118Q1747.8324212893372 561.4518566746885 1757.4810553843927 561.4518566746885L1757.4810553843927 561.4518566746885Q1763.5044801373756 561.4518566746885 1767.7153002193213 559.0257550380705Q1771.9261203012675 556.6275396271608 1775.5513296433405 552.6119231251726L1775.5513296433405 552.6119231251726ZM1675.7465278335044 456.62753423736706L1675.7465278335044 503.22541739585716L1709.684064520448 503.22541739585716Q1722.5396145719524 503.22541739585716 1730.9612547358447 496.8952441600838Q1739.4107811254448 490.5650709243105 1739.4107811254448 479.52212554384244L1739.4107811254448 479.52212554384244Q1739.4107811254448 468.8974735489982 1731.0727996386777 462.76250389318267Q1722.73481815191 456.62753423736706 1709.684064520448 456.62753423736706L1709.684064520448 456.62753423736706L1675.7465278335044 456.62753423736706ZM1839.9963972551122 580.5260350591334Q1826.1369430781106 580.5260350591334 1814.0900935721456 574.307406726193Q1802.0432440661803 568.0608921675444 1794.9322565105758 556.6275396271608Q1787.7933827292632 545.1941870867773 1787.7933827292632 530.5260323642365L1787.7933827292632 530.5260323642365Q1787.7933827292632 515.6626740617378 1794.9322565105758 504.312980198479Q1802.0432440661803 492.9911725609285 1814.0900935721456 486.7446580022799Q1826.1369430781106 480.52602966933955 1839.9963972551122 480.52602966933955L1839.9963972551122 480.52602966933955Q1853.6606478521558 480.52602966933955 1865.5959524552877 486.7446580022799Q1877.5312570584201 492.9911725609285 1884.7816757425658 504.42452510131204Q1892.0042082010032 515.8578776416955 1892.0042082010032 530.5260323642365L1892.0042082010032 530.5260323642365Q1892.0042082010032 545.1941870867773 1884.9768793225235 556.6275396271608Q1877.9495504440438 568.0608921675444 1865.9863596152036 574.307406726193Q1854.0510550120716 580.5260350591334 1839.9963972551122 580.5260350591334L1839.9963972551122 580.5260350591334ZM1839.9963972551122 564.6587726311376Q1849.031534384586 564.6587726311376 1856.2540668430233 560.4479525491914Q1863.4765993014607 556.2371324672454 1867.6037607062822 548.4847617203511Q1871.7309221111036 540.7602771991651 1871.7309221111036 530.5260323642365L1871.7309221111036 530.5260323642365Q1871.7309221111036 520.2917875293077 1867.6037607062822 512.5673030081218Q1863.4765993014607 504.81493226122757 1856.2540668430233 500.6041121792814Q1849.031534384586 496.39329209733523 1839.9963972551122 496.39329209733523L1839.9963972551122 496.39329209733523Q1826.1369430781106 496.39329209733523 1817.2133508514698 505.7351777095999Q1808.2618723991204 515.0770633218644 1808.2618723991204 530.5260323642365L1808.2618723991204 530.5260323642365Q1808.2618723991204 545.9750014066084 1817.2133508514698 555.316887018873Q1826.1369430781106 564.6587726311376 1839.9963972551122 564.6587726311376L1839.9963972551122 564.6587726311376ZM2091.3628357893012 561.8422638346041L2110.04660701383 561.8422638346041L2110.04660701383 577.7095262625999L2054.6366765315324 577.7095262625999L2054.6366765315324 561.8422638346041L2071.703046664983 561.8422638346041L2071.703046664983 521.4908952347625Q2071.703046664983 511.0614468198761 2067.0739331974128 505.0380220668936Q2062.4727059555516 499.014597313911 2053.214479020412 499.014597313911L2053.214479020412 499.014597313911Q2044.988042436477 499.014597313911 2036.3711986926269 504.42452510131204Q2027.7264687230686 509.83445288871303 2019.500032139134 519.873494143684L2019.500032139134 519.873494143684L2019.500032139134 520.8773982691811L2019.500032139134 561.8422638346041L2036.7616058525423 561.8422638346041L2036.7616058525423 577.7095262625999L1982.5507830756992 577.7095262625999L1982.5507830756992 561.8422638346041L1999.812356789108 561.8422638346041L1999.812356789108 521.4908952347625Q1999.812356789108 511.0614468198761 1994.98803974158 505.0380220668936Q1990.1916089197607 499.014597313911 1980.9333819846206 499.014597313911L1980.9333819846206 499.014597313911Q1972.706945400686 499.014597313911 1964.0901016568364 504.536070004145Q1955.4453716872777 510.05754269437904 1947.0237315233858 520.2917875293077L1947.0237315233858 520.2917875293077L1947.0237315233858 561.8422638346041L1964.4805088167514 561.8422638346041L1964.4805088167514 577.7095262625999L1906.0588659579626 577.7095262625999L1906.0588659579626 561.8422638346041L1927.3360561733593 561.8422638346041L1927.3360561733593 499.014597313911L1906.0588659579626 499.014597313911L1906.0588659579626 483.1473348859153L1947.0237315233858 483.1473348859153L1947.0237315233858 503.81102813573045Q1955.835778847193 492.7680827552624 1966.293113487788 486.7446580022799Q1976.7225619026744 480.7212332492973 1987.9607108631003 480.7212332492973L1987.9607108631003 480.7212332492973Q1999.421949629192 480.7212332492973 2007.146434150378 487.05140648507063Q2014.8709186715641 493.381579720844 2017.8826310480554 505.62363280676686L2017.8826310480554 505.62363280676686Q2026.917768177529 493.7719868807595 2037.6539650752065 487.24661006502845Q2048.4180481985923 480.7212332492973 2060.0466043189335 480.7212332492973L2060.0466043189335 480.7212332492973Q2074.7147590414743 480.7212332492973 2083.052740528242 491.06702298705903Q2091.3628357893012 501.4128127248207 2091.3628357893012 520.8773982691811L2091.3628357893012 520.8773982691811L2091.3628357893012 561.8422638346041ZM2208.0388041526303 550.799318454136L2216.4604443165226 563.6548685056405Q2197.19106235212 580.5260350591334 2172.4838663746077 580.5260350591334L2172.4838663746077 580.5260350591334Q2159.0427055832306 580.5260350591334 2146.9958560772648 574.8930174660663Q2134.9490065713 569.2878860987075 2127.503384307197 558.4401442981973Q2120.0856482688014 547.5924024976871 2120.0856482688014 532.7290441951884L2120.0856482688014 532.7290441951884Q2120.0856482688014 516.8617817671927 2127.726474112863 505.0380220668936Q2135.3394137312152 493.18637614088624 2147.581466817139 486.85620290511287Q2159.8514061287697 480.52602966933955 2173.2925669201477 480.52602966933955L2173.2925669201477 480.52602966933955Q2185.144212846155 480.52602966933955 2194.4860984584193 484.34644259137013Q2203.8000978449754 488.1668555134007 2209.126366955252 494.99898081192265Q2214.452636065528 501.8032198847363 2214.452636065528 510.6431534342523L2214.452636065528 510.6431534342523Q2214.452636065528 523.8891106456723 2203.1029422022693 531.2231880069428Q2191.7532483390105 538.5572653682132 2175.9138721367226 538.5572653682132L2175.9138721367226 538.5572653682132Q2165.651741076086 538.5572653682132 2156.8396937522784 536.437912214386Q2147.9997602027624 534.346445286267 2138.9646230732887 530.3308287842787L2138.9646230732887 530.3308287842787L2138.9646230732887 532.1434334553151Q2138.9646230732887 541.5689777447044 2143.482191638025 548.7915102031419Q2147.9997602027624 556.0140426615793 2155.612699821115 559.83445558361Q2163.2535256651763 563.6548685056405 2172.28866279465 563.6548685056405L2172.28866279465 563.6548685056405Q2192.7571524645073 563.6548685056405 2208.0388041526303 550.799318454136L2208.0388041526303 550.799318454136ZM2174.68687820556 496.1980885173775Q2163.8670226307577 496.1980885173775 2154.5251370184933 502.4167168503178Q2145.183251406229 508.63534518325815 2141.16763490424 519.2878834038106L2141.16763490424 519.2878834038106Q2156.421400366655 524.6978111912116 2171.6751658290686 524.6978111912116L2171.6751658290686 524.6978111912116Q2181.714207084039 524.6978111912116 2188.239583899771 520.988943172014Q2194.7649607155017 517.2800751528164 2194.7649607155017 510.6431534342523L2194.7649607155017 510.6431534342523Q2194.7649607155017 504.2293215213542 2189.159829348143 500.2137050193659Q2183.526811755076 496.1980885173775 2174.68687820556 496.1980885173775L2174.68687820556 496.1980885173775Z " fill="#ffffff" transform="matrix(0.3947735655180812,0,0,0.3947735655180812,0,100.43165368627)"/></g></svg>